<?xml version="1.0" standalone="no"?>
<!DOCTYPE svg PUBLIC "-//W3C//DTD SVG 20010904//EN"
 "http://www.w3.org/TR/2001/REC-SVG-20010904/DTD/svg10.dtd">
<svg version="1.0" xmlns="http://www.w3.org/2000/svg"
 width="500.000000pt" height="500.000000pt" viewBox="0 0 500.000000 500.000000"
 preserveAspectRatio="xMidYMid meet">

<g transform="translate(0.000000,500.000000) scale(0.100000,-0.100000)"
fill="#000000" stroke="none">
<path d="M927 4223 c-4 -3 -7 -39 -7 -80 0 -71 -1 -73 -24 -73 -19 0 -25 -6
-28 -27 -2 -22 -8 -28 -28 -28 -21 0 -26 5 -28 33 -3 28 -7 32 -33 32 -28 0
-29 -1 -29 -50 l0 -49 -62 -3 -63 -3 -3 -442 c-2 -390 0 -443 13 -443 10 0 15
-10 15 -35 0 -24 -5 -35 -15 -35 -12 0 -15 -18 -15 -104 l0 -105 -42 -3 c-39
-3 -43 -6 -46 -30 -3 -24 -8 -28 -33 -28 l-29 0 0 -290 0 -290 40 0 c29 0 40
-4 40 -15 0 -11 12 -15 45 -15 l45 0 0 -75 c0 -43 -4 -75 -10 -75 -7 0 -10
-167 -10 -480 0 -420 2 -480 15 -480 10 0 15 -10 15 -30 0 -29 2 -30 45 -30
l45 0 0 -50 0 -50 50 0 50 0 0 -40 0 -40 40 0 c40 0 40 0 40 -39 l0 -38 118
-7 c139 -8 2959 -7 3017 0 40 5 41 7 37 40 l-4 34 56 0 56 0 0 55 0 55 40 0
c33 0 40 3 40 19 0 16 8 20 38 23 l37 3 0 1520 0 1520 -43 3 -43 3 7 35 c6 34
6 34 -31 34 -29 0 -36 -3 -31 -15 3 -8 2 -15 -3 -15 -10 0 -21 50 -21 96 l0
34 -50 0 -50 0 0 40 0 40 -1578 0 c-868 0 -1582 -3 -1585 -7z m3010 -120 l142
-6 -6 -29 c-3 -17 -1 -28 6 -28 6 0 11 -7 11 -15 0 -12 13 -15 55 -15 l55 0 0
-172 c0 -94 -3 -169 -6 -165 -4 3 -7 19 -8 34 0 15 -6 28 -11 28 -6 0 -9 -5
-7 -12 2 -7 -2 -13 -8 -13 -7 0 -9 -64 -8 -192 0 -108 4 -173 8 -148 4 33 8
40 14 28 5 -10 6 -25 2 -33 -3 -9 0 -15 9 -15 13 0 15 -25 15 -151 l0 -151
-25 4 -25 5 -2 -176 -3 -176 -195 0 c-225 -1 -221 0 -214 -20 5 -13 37 -15
199 -15 155 0 195 -3 204 -14 8 -9 14 -75 18 -180 l6 -166 -221 0 -222 0 0
445 0 445 -44 0 c-35 0 -46 -4 -51 -19 -7 -25 -33 -31 -127 -31 l-78 0 -1 68
c-1 37 0 156 1 265 l2 197 -834 -2 -833 -3 -3 -157 c-2 -131 -5 -158 -17 -158
-11 0 -15 -11 -15 -40 l0 -39 -121 -3 -121 -3 0 -230 c0 -126 -2 -222 -5 -212
-2 9 -9 17 -14 17 -5 0 -9 7 -9 16 0 8 -4 12 -10 9 -5 -3 -10 -3 -10 2 0 4
-18 9 -40 10 -22 2 -39 -1 -38 -5 1 -4 -4 -20 -11 -37 -9 -21 -14 -26 -20 -16
-6 9 -10 7 -14 -8 -5 -20 -11 -21 -171 -21 -159 0 -166 -1 -166 -20 0 -19 7
-20 175 -20 l175 0 0 -225 0 -225 -180 0 c-153 0 -180 -2 -180 -15 0 -13 27
-15 180 -15 l180 0 0 -111 c0 -74 -3 -108 -10 -104 -24 15 -40 -17 -40 -79 0
-90 -6 -95 -125 -98 -83 -3 -100 -6 -103 -19 -3 -15 26 -17 273 -24 l276 -7
-3 -59 c-2 -32 -6 -59 -10 -59 -4 0 -9 -62 -10 -137 l-3 -138 -55 -6 c-48 -5
-50 -6 -15 -8 51 -2 85 -11 85 -22 0 -5 -8 -9 -17 -9 -17 -1 -17 -1 -1 -14 14
-10 18 -32 20 -109 l3 -97 918 3 c574 1 917 -2 917 -7 0 -6 6 -4 13 3 10 11
10 14 0 18 -10 4 -13 78 -13 324 l0 319 150 0 150 0 0 215 0 215 240 0 241 0
-2 -200 c-2 -183 -6 -219 -24 -190 -3 6 -12 10 -18 10 -8 0 -8 -3 1 -9 17 -11
-7 -21 -49 -21 -21 0 -27 4 -23 15 5 13 -18 15 -175 15 -174 0 -181 -1 -181
-20 0 -19 7 -20 173 -21 94 -1 182 0 195 1 12 1 22 -3 22 -8 0 -5 18 -12 40
-16 l40 -6 -4 -159 c-3 -89 -9 -169 -16 -180 -6 -12 -7 -21 -3 -21 4 0 1 -5
-7 -10 -18 -11 -17 -10 -19 -122 l-1 -88 -138 0 -137 0 -13 -30 c-13 -29 -32
-41 -32 -20 0 6 -25 10 -56 10 -40 0 -54 -3 -51 -12 2 -7 10 -12 16 -10 7 1 9
-3 6 -9 -12 -18 -35 13 -42 57 -6 36 -17 53 -35 54 -5 0 -8 -7 -8 -15 0 -8 -6
-15 -12 -16 -9 0 -9 -2 -2 -5 9 -4 8 -17 -1 -49 -18 -60 -44 -84 -86 -80 -19
2 -37 4 -42 4 -4 1 -12 12 -19 25 -12 28 -41 45 -31 19 5 -13 2 -15 -11 -10
-14 5 -17 3 -12 -8 6 -17 4 -18 -18 -9 -9 3 -13 10 -10 15 3 5 -55 9 -135 9
-77 0 -142 -3 -144 -7 -3 -5 20 -8 51 -7 67 0 84 -4 75 -20 -3 -6 -1 -6 8 1
17 17 36 16 42 -1 4 -10 1 -13 -7 -10 -8 3 -17 1 -21 -5 -10 -17 -23 -13 -30
10 -6 18 -8 18 -18 5 -8 -10 -35 -17 -79 -21 -64 -5 -85 3 -56 21 20 12 -22
23 -87 22 -52 -1 -55 -2 -21 -7 42 -6 58 -26 29 -35 -21 -6 -94 -10 -108 -5
-15 4 -98 -12 -110 -22 -6 -4 -20 -8 -30 -8 -11 0 -45 -3 -75 -8 -30 -5 -86
-6 -125 -3 -38 3 -87 2 -108 -3 -21 -4 -86 -5 -145 -3 -188 9 -259 9 -271 2
-6 -4 -11 -2 -11 5 0 7 -3 9 -6 6 -4 -3 -15 -2 -25 3 -11 6 -19 6 -21 0 -2 -5
-18 -6 -41 0 -23 5 -66 4 -105 -1 -125 -18 -167 -19 -231 -7 -47 9 -65 17 -69
30 -2 10 -9 18 -14 18 -5 0 -6 -4 -3 -10 3 -5 -1 -10 -9 -10 -8 0 -22 -7 -30
-16 -9 -9 -40 -18 -74 -20 -31 -3 -61 -9 -66 -14 -12 -12 -36 -1 -36 16 0 13
-23 19 -62 15 -16 -2 -18 8 -18 83 l0 86 -130 0 -130 0 0 -132 c0 -73 -5 -140
-10 -148 -6 -10 -10 214 -10 643 l0 657 -170 0 -170 0 0 250 0 250 168 2 167
3 3 673 2 672 1423 0 c782 0 1486 -3 1564 -7z m-3017 -308 l0 -125 -90 0 -90
0 0 125 0 125 90 0 90 0 0 -125z m2392 -212 c3 -57 3 -58 36 -61 l32 -3 0 -60
0 -60 -147 3 -148 3 -3 42 c-3 37 -6 42 -30 45 -21 2 -27 8 -27 28 l0 25 -403
3 -402 2 0 -75 0 -75 -215 3 c-118 2 -217 6 -221 9 -3 4 -3 54 1 112 l7 105
62 3 c33 2 375 5 758 6 l697 2 3 -57z m-2392 -363 l0 -410 -90 0 -90 0 0 410
0 410 90 0 90 0 0 -410z m1950 265 c0 -13 -41 -15 -282 -17 l-283 -3 -3 -57
c-3 -50 -6 -58 -22 -58 -18 0 -20 7 -20 75 l0 75 305 0 c263 0 305 -2 305 -15z
m260 -270 l0 -95 -485 0 -485 0 0 -160 0 -160 -85 0 -85 0 0 255 0 255 570 0
570 0 0 -95z m-1170 -50 c0 -14 -7 -28 -16 -32 -12 -5 -15 -23 -13 -107 l2
-101 -92 -3 -91 -3 0 -89 0 -90 -59 0 -59 0 -7 -80 -7 -80 -124 0 -124 0 0 80
0 80 80 0 80 0 0 220 0 219 123 4 c67 1 164 4 215 5 l92 2 0 -25z m1730 -114
c0 -44 -2 -49 -20 -44 -12 3 -20 0 -20 -6 0 -7 -4 -9 -10 -6 -6 4 -10 -16 -10
-53 0 -32 -3 -120 -7 -195 l-6 -137 -54 0 c-40 0 -53 -4 -53 -15 0 -12 -13
-15 -55 -15 l-54 0 -3 133 -3 132 -97 3 -98 3 0 124 0 125 245 0 245 0 0 -49z
m-560 -148 l0 -173 -130 0 c-104 0 -130 -3 -130 -14 0 -8 -7 -16 -15 -20 -13
-4 -15 -34 -15 -181 l0 -175 -115 0 -115 0 0 80 0 80 -115 0 -115 0 0 -80 0
-80 -235 0 -235 0 0 135 0 135 35 0 c33 0 35 2 35 35 l0 34 88 3 c82 3 87 4
90 26 2 14 10 22 23 22 18 0 19 9 19 159 0 88 3 166 6 174 4 13 70 14 465 13
l459 -1 0 -172z m-1673 -99 c-3 -3 -12 -4 -19 -1 -8 3 -5 6 6 6 11 1 17 -2 13
-5z m1893 -84 c0 -13 -34 -30 -59 -30 -14 0 -21 6 -21 20 0 17 7 20 40 20 22
0 40 -4 40 -10z m-1490 -10 c0 -5 -9 -10 -20 -10 -11 0 -20 5 -20 10 0 6 9 10
20 10 11 0 20 -4 20 -10z m1360 -40 c0 -6 -60 -10 -160 -10 -100 0 -160 4
-160 10 0 6 60 10 160 10 100 0 160 -4 160 -10z m-1450 -40 c0 -16 -7 -20 -35
-20 l-35 0 0 -86 c0 -71 -3 -85 -14 -81 -11 5 -16 -4 -19 -36 -2 -23 -4 22 -5
101 l-2 142 55 0 c48 0 55 -2 55 -20z m1330 -60 c0 -6 -42 -10 -105 -10 -63 0
-105 4 -105 10 0 6 42 10 105 10 63 0 105 -4 105 -10z m-1480 -170 l0 -100
-125 0 -125 0 0 90 0 90 55 0 c30 0 55 5 55 10 0 6 30 10 70 10 l70 0 0 -100z
m2070 0 l0 -100 -145 0 -145 0 0 100 0 100 145 0 145 0 0 -100z m-627 -7 c-23
-2 -64 -2 -90 0 -26 2 -7 3 42 3 50 0 71 -1 48 -3z m-145 -95 c-7 -19 -163
-27 -478 -23 -151 2 -336 3 -410 4 -88 1 -131 4 -124 11 6 6 192 11 494 13
267 1 493 3 503 5 11 1 17 -3 15 -10z m690 -34 c22 -6 22 -8 22 -190 l0 -183
-122 -3 -123 -3 -3 -87 -3 -88 -77 0 c-127 0 -122 -4 -122 111 l0 99 40 0 c29
0 40 4 40 15 0 12 14 15 70 15 l70 0 0 160 0 160 93 0 c50 0 102 -3 115 -6z
m-1988 -158 l0 -154 145 -7 c142 -7 145 -8 145 -30 0 -14 7 -25 20 -28 18 -5
20 -14 20 -85 l0 -79 -155 -7 c-85 -4 -159 -4 -165 -1 -5 3 -10 46 -10 96 l0
89 -125 0 -125 0 0 180 0 180 125 0 125 0 0 -154z m-793 100 c4 -8 17 -15 27
-17 11 -3 24 -18 31 -38 13 -39 20 -33 24 19 7 89 11 23 11 -202 l0 -245 -52
-7 c-29 -3 -70 -6 -90 -6 l-38 0 0 90 0 90 40 0 40 0 0 49 0 48 -40 7 -40 6 0
110 0 110 40 0 c23 0 42 -6 47 -14z m1553 -162 l0 -64 115 0 115 0 0 64 0 64
33 -2 c17 -2 67 -4 109 -5 64 -1 76 -4 72 -16 -4 -8 -1 -15 5 -15 6 0 10 -3
10 -7 -1 -5 -1 -38 0 -75 l1 -68 74 0 c85 0 106 -6 106 -28 0 -8 3 -12 8 -8 4
4 7 13 7 19 0 7 11 13 25 14 14 1 19 0 13 -3 -7 -3 -13 -12 -13 -20 0 -13 14
-18 48 -17 9 1 12 -23 12 -88 0 -49 -3 -88 -7 -88 -20 3 -26 -2 -13 -11 11 -7
-4 -10 -50 -10 -46 0 -61 3 -50 10 10 7 -12 10 -72 10 l-86 0 -7 -30 c-3 -16
-4 -44 -1 -62 3 -18 2 -39 -3 -46 -6 -9 -77 -12 -317 -10 l-309 3 -3 65 -3 65
-104 -3 -105 -3 0 216 0 216 195 -1 195 -2 0 -64z m730 6 c0 -6 -43 -10 -110
-10 -67 0 -110 4 -110 10 0 6 43 10 110 10 67 0 110 -4 110 -10z m-137 -367
c-7 -2 -19 -2 -25 0 -7 3 -2 5 12 5 14 0 19 -2 13 -5z m-2053 -333 l0 -320
-90 0 -90 0 0 320 0 320 90 0 90 0 0 -320z m1173 283 c-48 -2 -83 -8 -83 -14
0 -6 -4 -7 -10 -4 -28 17 -2 25 83 23 l92 -2 -82 -3z m624 -137 c3 -3 -102 -6
-235 -6 -149 0 -242 4 -242 10 0 10 466 7 477 -4z m223 -221 l0 -45 -50 0 -50
0 0 35 c0 34 1 35 39 35 22 0 43 5 46 10 11 19 15 10 15 -35z m-360 10 c0 -12
8 -14 31 -10 19 4 28 2 24 -5 -3 -5 -15 -10 -26 -10 -11 0 -22 -7 -25 -15 -4
-8 -10 -12 -15 -9 -5 3 -7 9 -5 13 3 4 -10 7 -29 7 -26 -1 -31 -4 -23 -13 8
-10 6 -13 -6 -13 -9 0 -16 6 -16 13 0 8 -2 9 -8 1 -5 -8 -52 -11 -142 -10
l-135 1 -3 33 -3 32 190 0 c164 0 191 -2 191 -15z m1450 -170 l0 -85 -65 0
-65 0 0 85 0 85 65 0 65 0 0 -85z m-2850 1 l0 -74 -57 -5 c-32 -2 -62 -1 -67
4 -6 6 -6 9 1 9 7 0 8 12 2 38 -5 20 -9 52 -9 70 l0 32 65 0 65 0 0 -74z m208
-103 c-10 -2 -26 -2 -35 0 -10 3 -2 5 17 5 19 0 27 -2 18 -5z m409 1 c-3 -3
-12 -4 -19 -1 -8 3 -5 6 6 6 11 1 17 -2 13 -5z m630 0 c-3 -3 -12 -4 -19 -1
-8 3 -5 6 6 6 11 1 17 -2 13 -5z m71 -1 c-10 -2 -28 -2 -40 0 -13 2 -5 4 17 4
22 1 32 -1 23 -4z m1332 -54 c-68 -12 -2540 -11 -2540 1 0 7 437 10 1293 9
710 -1 1272 -5 1247 -10z"/>
<path d="M3860 3918 l0 -23 -1315 -4 c-1215 -4 -1315 -3 -1321 12 -5 14 -22
17 -99 17 -88 0 -93 -1 -99 -22 -11 -41 -7 -173 6 -186 8 -8 45 -12 100 -12
l88 0 0 80 c0 57 4 80 13 80 6 0 600 1 1319 3 l1307 3 3 -80 3 -81 103 -3 102
-3 0 121 0 120 -105 0 c-102 0 -105 -1 -105 -22z m180 -93 l0 -75 -75 0 -75 0
0 75 0 75 75 0 75 0 0 -75z m-2860 -5 l0 -70 -60 0 -60 0 0 70 0 70 60 0 60 0
0 -70z"/>
<path d="M1358 2928 c14 -7 26 -8 32 -2 6 6 -2 10 -23 11 -30 2 -31 1 -9 -9z"/>
<path d="M4170 2221 c0 -23 2 -41 4 -41 8 0 12 71 4 76 -4 3 -8 -13 -8 -35z"/>
<path d="M970 2100 c0 -19 5 -20 153 -19 83 1 137 4 119 8 -18 3 -33 11 -32
16 0 6 -48 11 -120 13 -115 2 -120 2 -120 -18z"/>
<path d="M2238 1153 c6 -2 18 -2 25 0 6 3 1 5 -13 5 -14 0 -19 -2 -12 -5z"/>
<path d="M2318 1153 c7 -3 16 -2 19 1 4 3 -2 6 -13 5 -11 0 -14 -3 -6 -6z"/>
<path d="M2398 1153 c7 -3 16 -2 19 1 4 3 -2 6 -13 5 -11 0 -14 -3 -6 -6z"/>
<path d="M2818 1143 c7 -3 16 -2 19 1 4 3 -2 6 -13 5 -11 0 -14 -3 -6 -6z"/>
<path d="M2900 1141 c0 -4 11 -6 25 -3 14 2 25 6 25 8 0 2 -11 4 -25 4 -14 0
-25 -4 -25 -9z"/>
<path d="M1143 1158 c2 -58 -4 -78 -22 -78 -11 0 -22 -4 -25 -9 -3 -5 12 -9
34 -9 l40 -1 0 55 c0 39 -4 54 -14 54 -8 0 -14 -6 -13 -12z"/>
</g>
</svg>
